# xmcd CD database file
#
# Track frame offsets:
#	150
#	16504
#	40995
#	59605
#	76840
#	91936
#	106627
#	127662
#	145187
#	161617
#	180245
#	196910
#	213503
#	233611
#	250650
#	269466
#	292095
#
# Disc length: 4374 seconds
#
# Revision: 0
# Processed by: cddbd v1.4PL0 Copyright (c) Steve Scherf et al.
# Submitted via: Feurio! 1.62 - http://www.feurio.com
#
DISCID=d6111411
DTITLE=Various Artist - Blue Voices CD 2
DYEAR=1900
DGENRE=
TTITLE0=Ella Fitzgerald - People
TTITLE1=Freddy Cole - You're Nice To Be Around
TTITLE2=Ithamara Koorax - Moon River
TTITLE3=Oscar Peterson - Some Of These Days
TTITLE4=Betty Roche - When I Fal In Love
TTITLE5=Mose Allison - Baby let Me Hold Your Hand
TTITLE6=Etta Jones - All The Way
TTITLE7=Tony Bennett - Young And Foolish
TTITLE8=Flora Purim - Dindi
TTITLE9=Chet Baker - How Long Has This Been Going On?
TTITLE10=Sylvia Syms - Smile
TTITLE11=Milt Jackson - Someone I Love
TTITLE12=Agneta Baumann - The Good Life
TTITLE13=Jimmy Scott - Over The Rainbow
TTITLE14=Teri Thornton - What's New?
TTITLE15=Mark Murphy - L'il Darlin'
TTITLE16=Etta James - Misty
EXTD=
EXTT0=
EXTT1=
EXTT2=
EXTT3=
EXTT4=
EXTT5=
EXTT6=
EXTT7=
EXTT8=
EXTT9=
EXTT10=
EXTT11=
EXTT12=
EXTT13=
EXTT14=
EXTT15=
EXTT16=
PLAYORDER=
